# xmcd
#
# Track frame offsets: 
#        150
#        17391
#        35308
#        48381
#        65296
#        79970
#        93382
#        108572
#        119654
#        137476
#        152802
#        170823
#
# Disc length: 2563 seconds
#
# Revision: 0
# Processed by: cddbd v1.5.1PL0 Copyright (c) Steve Scherf et al.
# Submitted via: ExactAudioCopy v0.95a5
#
DISCID=9b0a010c
DTITLE=Andy Aguilera - Reggaeton Bachateao
DYEAR=2005
DGENRE=Latin
TTITLE0=Susana
TTITLE1=Merece Respeto Una Mujer
TTITLE2=Ahora Que
TTITLE3=Se Fue Mi Niña (f. Mr. Papo)
TTITLE4=Cancion De Amor
TTITLE5=Mi Amor Perdido (f. Divino)
TTITLE6=El Hombre De Tus Sueños
TTITLE7=La Carta
TTITLE8=Ha Nacido Un Angel
TTITLE9=Tu Partida (f. Mr. Papo)
TTITLE10=Navidad
TTITLE11=Madre (f. Chela)
EXTD=
EXTT0=
EXTT1=
EXTT2=
EXTT3=
EXTT4=
EXTT5=
EXTT6=
EXTT7=
EXTT8=
EXTT9=
EXTT10=
EXTT11=
PLAYORDER=
